<?xml version="1.0" standalone="no"?>
<!DOCTYPE svg PUBLIC "-//W3C//DTD SVG 20010904//EN"
 "http://www.w3.org/TR/2001/REC-SVG-20010904/DTD/svg10.dtd">
<svg version="1.0" xmlns="http://www.w3.org/2000/svg"
 width="512.000000pt" height="512.000000pt" viewBox="0 0 512.000000 512.000000"
 preserveAspectRatio="xMidYMid meet">

<g transform="translate(0.000000,512.000000) scale(0.100000,-0.100000)"
fill="#000000" stroke="none">
<path d="M2343 4920 c-300 -29 -575 -108 -843 -242 -258 -128 -449 -267 -650
-474 -334 -342 -549 -757 -635 -1220 -123 -665 33 -1330 439 -1874 134 -180
378 -412 564 -538 707 -480 1630 -544 2391 -166 693 343 1165 973 1302 1739
21 114 24 162 24 395 0 289 -10 377 -65 594 -196 762 -752 1377 -1495 1651
-123 46 -335 99 -475 120 -128 19 -432 27 -557 15z m423 -201 c423 -41 841
-212 1172 -481 227 -184 445 -455 575 -714 98 -197 180 -461 211 -682 20 -145
21 -434 1 -584 -93 -707 -537 -1334 -1173 -1656 -97 -50 -289 -132 -307 -132
-2 0 21 37 52 83 92 135 148 273 183 455 l20 105 73 76 c209 219 337 511 337
773 0 51 -3 59 -31 82 l-31 26 -1284 0 c-1368 0 -1330 1 -1348 -45 -11 -30 -6
-152 9 -232 44 -227 147 -424 316 -598 75 -77 78 -83 88 -145 31 -192 98 -366
198 -509 24 -35 43 -65 41 -67 -2 -1 -48 15 -102 36 -654 257 -1148 813 -1321
1485 -53 204 -69 333 -69 550 0 216 16 343 69 550 265 1032 1260 1728 2321
1624z m-326 -2971 c0 -5 47 -443 80 -741 16 -152 30 -287 31 -300 2 -64 19 36
39 223 42 405 80 756 86 788 l5 32 315 0 c198 0 322 -4 335 -10 18 -10 19 -24
19 -268 0 -270 -11 -388 -50 -531 -111 -405 -409 -640 -785 -618 -396 23 -663
315 -737 807 -7 50 -12 188 -13 338 0 240 1 254 19 268 16 11 79 14 338 14
175 0 318 -1 318 -2z"/>
<path d="M3273 3976 c-196 -38 -350 -122 -485 -264 -223 -237 -287 -576 -169
-893 44 -116 147 -259 243 -337 160 -130 313 -189 514 -199 409 -21 761 245
870 657 26 97 24 300 -4 405 -81 300 -321 540 -617 616 -104 26 -258 33 -352
15z m337 -137 c350 -97 581 -446 531 -803 -24 -170 -83 -288 -211 -417 -138
-139 -284 -206 -475 -216 -242 -13 -480 94 -620 279 -181 239 -205 555 -60
813 47 85 148 192 236 251 76 50 203 100 288 114 81 13 225 3 311 -21z"/>
<path d="M3313 3476 c-159 -52 -253 -179 -253 -341 0 -109 27 -175 104 -251
76 -77 142 -104 251 -104 143 0 254 69 317 198 30 60 33 75 33 157 0 77 -4 98
-27 147 -34 73 -104 143 -176 176 -68 31 -184 40 -249 18z"/>
<path d="M1532 3246 c-168 -43 -314 -171 -435 -382 -51 -88 -56 -113 -29 -136
37 -33 56 -30 128 19 256 175 627 179 883 8 37 -24 74 -47 82 -50 19 -7 79 31
79 50 0 21 -55 129 -100 195 -91 133 -209 234 -329 278 -81 29 -203 38 -279
18z"/>
</g>
</svg>
