<?xml version="1.0" standalone="no"?>
<!DOCTYPE svg PUBLIC "-//W3C//DTD SVG 20010904//EN"
 "http://www.w3.org/TR/2001/REC-SVG-20010904/DTD/svg10.dtd">
<svg version="1.0" xmlns="http://www.w3.org/2000/svg"
 width="512.000000pt" height="512.000000pt" viewBox="0 0 512.000000 512.000000"
 preserveAspectRatio="xMidYMid meet">
<metadata>
Created by potrace 1.14, written by Peter Selinger 2001-2017
</metadata>
<g transform="translate(0.000000,512.000000) scale(0.100000,-0.100000)"
fill="#000000" stroke="none">
<path d="M1160 4199 c0 -5 5 -7 10 -4 6 3 10 8 10 11 0 2 -4 4 -10 4 -5 0 -10
-5 -10 -11z"/>
<path d="M3945 4200 c3 -5 8 -10 11 -10 2 0 4 5 4 10 0 6 -5 10 -11 10 -5 0
-7 -4 -4 -10z"/>
<path d="M1130 4169 c0 -5 5 -7 10 -4 6 3 10 8 10 11 0 2 -4 4 -10 4 -5 0 -10
-5 -10 -11z"/>
<path d="M1010 4049 c0 -5 5 -7 10 -4 6 3 10 8 10 11 0 2 -4 4 -10 4 -5 0 -10
-5 -10 -11z"/>
<path d="M980 4019 c0 -5 5 -7 10 -4 6 3 10 8 10 11 0 2 -4 4 -10 4 -5 0 -10
-5 -10 -11z"/>
<path d="M950 3990 c0 -5 5 -10 10 -10 6 0 10 5 10 10 0 6 -4 10 -10 10 -5 0
-10 -4 -10 -10z"/>
<path d="M4155 3990 c3 -5 8 -10 11 -10 2 0 4 5 4 10 0 6 -5 10 -11 10 -5 0
-7 -4 -4 -10z"/>
<path d="M920 3955 c0 -8 -7 -15 -15 -15 -8 0 -15 -7 -15 -15 0 -8 -7 -15 -15
-15 -9 0 -15 -10 -15 -26 0 -15 4 -23 11 -19 6 4 8 13 5 21 -3 8 -1 14 5 14
11 0 58 50 59 63 0 4 -4 7 -10 7 -5 0 -10 -7 -10 -15z"/>
<path d="M4180 3960 c0 -5 5 -10 10 -10 6 0 10 5 10 10 0 6 -4 10 -10 10 -5 0
-10 -4 -10 -10z"/>
<path d="M4210 3935 c0 -10 48 -74 53 -69 9 10 -5 44 -19 44 -8 0 -14 7 -14
15 0 8 -4 15 -10 15 -5 0 -10 -2 -10 -5z"/>
<path d="M830 3847 c0 -9 -6 -20 -14 -24 -18 -10 -31 -53 -16 -53 6 0 13 8 17
18 3 9 13 25 21 35 12 13 13 20 4 29 -9 9 -12 8 -12 -5z"/>
<path d="M4270 3846 c0 -8 3 -16 8 -18 11 -5 52 -66 52 -78 0 -5 4 -10 9 -10
5 0 14 -12 20 -27 6 -16 24 -51 39 -79 57 -107 97 -207 132 -324 12 -41 26
-86 30 -100 5 -14 11 -59 14 -100 3 -41 10 -93 16 -115 9 -38 7 -378 -3 -420
-3 -11 -8 -54 -11 -95 -6 -70 -16 -122 -52 -280 -17 -70 -75 -252 -84 -260 -4
-3 -14 -25 -24 -50 -9 -25 -28 -65 -41 -90 -13 -25 -29 -57 -36 -72 -6 -16
-15 -28 -19 -28 -4 0 -11 -12 -14 -26 -4 -14 -16 -35 -26 -47 -11 -11 -26 -33
-32 -49 -7 -15 -15 -28 -18 -28 -3 0 -25 -27 -49 -60 -24 -33 -48 -60 -52 -60
-5 0 -9 -7 -9 -15 0 -8 -4 -15 -8 -15 -5 0 -28 -27 -52 -60 -24 -33 -47 -60
-52 -60 -4 0 -8 -7 -8 -15 0 -8 -4 -15 -10 -15 -5 0 -44 -34 -86 -75 -42 -41
-85 -77 -95 -80 -11 -4 -19 -11 -19 -16 0 -5 -5 -9 -11 -9 -5 0 -22 -13 -37
-29 -15 -15 -43 -37 -62 -47 -19 -10 -42 -26 -52 -35 -10 -9 -31 -22 -46 -30
-15 -8 -31 -19 -37 -26 -5 -6 -39 -26 -75 -43 -36 -17 -78 -38 -93 -46 -39
-19 -97 -19 -97 1 0 8 -4 15 -9 15 -5 0 -14 30 -21 66 -8 40 -20 73 -31 82
-26 23 -24 46 8 68 14 10 34 26 43 34 23 20 50 38 78 50 12 5 22 14 22 20 0 5
7 10 15 10 8 0 15 3 15 8 0 4 27 27 60 51 33 24 60 48 60 52 0 5 7 9 15 9 8 0
15 7 15 15 0 8 7 15 15 15 8 0 15 4 15 9 0 5 19 29 41 52 23 24 53 60 67 81
13 21 28 38 32 38 4 0 10 8 14 18 3 9 15 31 26 47 11 17 25 42 31 58 6 15 15
27 20 27 5 0 9 8 9 18 0 10 7 28 16 40 19 28 24 126 6 144 -15 15 -116 16
-135 0 -6 -5 -34 -15 -62 -22 -27 -6 -77 -18 -110 -26 -33 -8 -87 -19 -120
-25 -33 -6 -74 -15 -91 -20 -18 -5 -72 -14 -120 -19 -49 -6 -125 -15 -169 -22
-113 -16 -902 -16 -1015 1 -47 7 -118 16 -158 21 -40 5 -94 13 -120 19 -26 6
-69 15 -97 20 -27 5 -79 17 -115 26 -36 8 -87 20 -115 26 -27 6 -55 15 -62 20
-6 6 -35 10 -64 11 -44 0 -57 -4 -72 -23 -22 -27 -18 -80 10 -139 9 -19 24
-51 32 -70 9 -19 20 -38 24 -41 11 -8 34 -47 43 -71 3 -10 10 -18 13 -18 4 0
23 -21 41 -47 45 -63 237 -253 256 -253 8 0 17 -7 20 -15 4 -8 12 -15 20 -15
8 0 14 -5 14 -10 0 -6 10 -15 23 -20 12 -6 36 -19 52 -30 17 -11 39 -24 50
-30 111 -59 132 -82 102 -112 -7 -7 -22 -38 -32 -68 -26 -74 -50 -102 -84 -93
-40 10 -180 84 -209 110 -7 7 -22 13 -33 13 -10 0 -19 4 -19 9 0 6 -11 16 -24
23 -47 25 -156 102 -156 110 0 4 -4 8 -10 8 -11 0 -320 302 -320 314 0 4 -20
31 -45 59 -25 29 -45 57 -45 64 0 7 -7 13 -15 13 -8 0 -15 6 -15 13 0 8 -9 22
-20 32 -11 10 -20 24 -20 32 0 7 -3 13 -8 13 -4 0 -12 9 -17 19 -72 142 -99
191 -106 191 -5 0 -9 8 -9 18 0 10 -6 27 -14 38 -8 11 -17 37 -21 57 -4 20
-11 37 -16 37 -5 0 -9 6 -9 13 0 6 -6 23 -13 37 -7 14 -21 59 -31 100 -10 41
-25 98 -32 125 -71 263 -80 696 -21 980 19 88 67 233 102 305 15 30 37 75 48
100 12 25 24 47 27 50 3 3 14 22 24 43 15 29 17 40 8 49 -9 9 -12 8 -12 -5 0
-9 -6 -20 -12 -24 -7 -4 -24 -29 -38 -55 -13 -27 -28 -48 -31 -48 -4 0 -10
-11 -13 -25 -4 -14 -10 -25 -15 -25 -5 0 -12 -13 -16 -30 -4 -16 -10 -30 -15
-30 -5 0 -11 -13 -15 -30 -4 -16 -10 -30 -15 -30 -5 0 -11 -13 -15 -30 -4 -16
-10 -30 -15 -30 -4 0 -11 -18 -15 -40 -4 -22 -10 -40 -15 -40 -5 0 -11 -18
-15 -40 -4 -22 -10 -40 -15 -40 -4 0 -11 -20 -14 -45 -4 -24 -11 -47 -16 -50
-5 -3 -12 -27 -15 -53 -3 -26 -11 -55 -16 -66 -6 -10 -14 -48 -19 -85 -5 -36
-13 -86 -19 -111 -13 -58 -13 -532 0 -590 6 -25 14 -76 19 -113 5 -38 13 -74
18 -80 5 -7 12 -34 15 -61 2 -27 9 -51 14 -55 6 -3 13 -24 16 -46 4 -22 11
-41 17 -43 5 -2 10 -16 10 -31 0 -15 7 -36 15 -47 8 -10 15 -29 15 -40 0 -12
7 -27 15 -34 8 -7 15 -20 15 -29 0 -9 6 -25 14 -36 7 -11 16 -32 20 -47 3 -16
11 -28 16 -28 6 0 10 -8 10 -18 0 -10 5 -23 11 -29 13 -13 33 -47 49 -83 6
-13 14 -27 18 -30 9 -7 30 -40 42 -67 5 -13 14 -23 20 -23 5 0 10 -4 10 -10 0
-5 8 -19 18 -29 31 -35 42 -50 42 -59 0 -4 13 -19 30 -32 16 -14 29 -28 30
-32 0 -10 85 -101 139 -152 25 -23 60 -56 78 -74 19 -17 38 -32 43 -32 6 0 10
-4 10 -8 0 -10 96 -82 110 -82 5 0 10 -4 10 -9 0 -9 107 -81 121 -81 5 0 9 -4
9 -9 0 -5 10 -13 22 -17 12 -3 28 -13 36 -20 7 -8 22 -14 32 -14 10 0 20 -7
24 -15 3 -8 16 -15 30 -15 13 0 26 -7 30 -15 3 -8 17 -15 31 -15 14 0 25 -4
25 -10 0 -5 12 -13 28 -16 15 -4 36 -13 47 -20 11 -8 29 -14 40 -14 11 0 29
-7 39 -15 11 -8 29 -15 40 -15 12 0 30 -7 40 -15 11 -8 29 -15 40 -15 12 0 30
-7 40 -15 11 -8 29 -15 40 -15 12 0 50 -27 85 -60 36 -33 68 -60 72 -60 4 0
14 -6 21 -12 20 -19 123 -65 204 -91 104 -34 296 -20 411 30 75 32 108 49 121
60 7 7 17 13 21 13 4 0 36 27 72 60 35 33 73 60 85 60 11 0 29 7 40 15 10 8
30 15 44 15 14 0 34 7 44 15 11 8 30 15 42 15 12 0 27 7 34 15 7 8 22 15 34
15 12 0 31 7 42 15 10 8 29 15 40 15 12 0 27 7 34 15 7 8 20 15 30 15 10 0 23
7 30 15 7 8 20 15 30 15 10 0 23 7 30 15 7 8 21 15 31 15 10 0 22 6 26 13 4 7
27 21 50 32 24 11 43 24 43 28 0 4 14 13 30 18 17 6 30 15 30 20 0 5 7 9 15 9
8 0 15 4 15 9 0 5 20 21 45 35 25 15 45 31 45 36 0 6 7 10 15 10 8 0 15 7 15
15 0 8 6 15 14 15 19 0 286 267 286 286 0 3 10 15 23 27 23 23 67 82 67 91 0
3 11 17 25 32 14 15 28 38 31 51 4 13 10 23 15 23 8 0 14 10 59 97 14 26 28
50 32 53 3 3 10 18 13 33 4 15 11 27 16 27 5 0 9 6 9 13 0 7 9 29 20 50 11 20
20 43 20 51 0 8 6 27 14 43 28 56 46 104 46 122 0 10 7 32 15 47 8 16 15 43
15 60 0 16 5 35 11 41 6 6 13 39 16 74 3 35 10 70 16 77 10 12 28 228 29 352
1 96 -19 346 -30 367 -5 10 -12 47 -16 82 -3 35 -10 69 -15 75 -5 6 -12 32
-15 59 -4 26 -11 47 -15 47 -5 0 -11 19 -14 41 -3 23 -10 45 -15 48 -5 3 -13
21 -17 39 -4 18 -13 45 -21 60 -8 15 -14 33 -14 40 0 6 -4 12 -10 12 -5 0 -12
16 -16 35 -3 19 -10 35 -14 35 -5 0 -11 14 -15 30 -4 17 -11 30 -16 30 -5 0
-11 11 -15 25 -3 14 -10 25 -14 25 -5 0 -11 14 -15 30 -4 17 -11 30 -16 30 -5
0 -11 11 -15 24 -3 14 -12 27 -20 30 -8 3 -14 12 -14 21 0 8 -4 15 -10 15 -5
0 -12 11 -16 24 -3 14 -12 27 -20 30 -8 3 -14 12 -14 21 0 8 -7 15 -15 15 -8
0 -15 7 -15 15 0 8 -4 15 -10 15 -5 0 -10 -6 -10 -14z m-1925 -2976 c22 -11
46 -19 53 -20 6 0 12 -4 12 -10 0 -5 18 -13 40 -16 23 -4 50 -17 63 -30 28
-30 59 -30 92 0 14 13 43 26 65 30 22 3 40 11 40 16 0 6 6 10 13 10 6 1 30 9
52 20 46 22 175 28 175 9 0 -7 6 -17 14 -23 8 -6 20 -38 27 -71 15 -78 -1
-122 -54 -148 -136 -64 -177 -72 -372 -72 -177 0 -255 11 -331 46 -23 10 -46
19 -52 19 -25 0 -62 66 -62 110 0 54 19 120 36 120 6 0 14 7 18 15 8 23 120
20 171 -5z"/>
<path d="M3425 3529 c-138 -14 -295 -86 -401 -186 -50 -47 -144 -172 -160
-213 -64 -165 -66 -178 -62 -349 2 -111 7 -164 16 -173 6 -6 12 -24 12 -39 0
-15 7 -32 15 -39 8 -7 15 -20 15 -30 0 -10 7 -23 15 -30 8 -7 15 -16 15 -21 0
-31 173 -229 201 -229 5 0 17 -8 27 -17 21 -22 137 -83 156 -83 7 0 27 -7 45
-16 25 -13 65 -16 181 -16 148 -1 191 6 285 47 17 7 37 16 45 19 8 3 29 15 45
26 17 11 37 23 45 27 23 10 170 159 170 172 0 6 4 11 9 11 5 0 14 14 21 30 7
17 16 30 21 30 5 0 9 8 9 18 0 10 7 27 15 38 8 10 15 27 15 37 0 10 6 28 14
40 8 12 20 73 27 136 13 123 1 260 -27 313 -8 14 -14 32 -14 39 0 14 -31 78
-61 124 -10 17 -22 37 -25 45 -13 28 -161 165 -200 185 -21 11 -45 26 -52 33
-7 6 -19 12 -27 12 -7 0 -26 6 -42 14 -85 42 -209 58 -348 45z m236 -80 c64
-22 249 -133 249 -150 0 -5 4 -9 10 -9 12 0 80 -68 80 -80 0 -6 4 -10 9 -10 6
0 17 -12 25 -27 113 -210 138 -345 96 -521 -19 -81 -62 -184 -87 -210 -7 -7
-13 -17 -13 -21 0 -5 -28 -37 -62 -73 -68 -69 -163 -138 -190 -138 -9 0 -19
-4 -22 -9 -3 -5 -37 -18 -75 -30 -94 -29 -258 -29 -355 -1 -72 20 -215 96
-223 118 -3 6 -9 12 -14 12 -5 0 -17 8 -26 18 -24 23 -108 134 -116 152 -4 8
-11 22 -16 30 -14 24 -38 81 -55 135 -22 69 -22 252 0 320 36 109 105 245 125
245 5 0 9 5 9 10 0 14 83 93 134 127 22 15 43 31 44 36 2 4 10 7 18 7 8 0 14
4 14 10 0 5 12 13 28 16 15 4 33 11 40 17 7 5 31 14 55 19 23 5 58 13 77 17
69 17 173 12 241 -10z"/>
<path d="M3457 3026 c-35 -8 -61 -24 -95 -56 -65 -63 -82 -99 -82 -175 0 -41
6 -75 18 -96 19 -35 78 -99 92 -99 4 0 10 -5 12 -10 2 -6 28 -17 58 -25 45
-12 65 -12 114 -3 32 7 61 18 63 25 3 7 9 13 15 13 16 0 68 64 88 109 37 81
18 176 -49 249 -16 17 -35 32 -40 32 -6 0 -11 4 -11 10 0 9 -47 24 -105 32
-16 3 -52 0 -78 -6z"/>
<path d="M1550 2801 c-8 -5 -31 -12 -50 -15 -58 -12 -193 -78 -247 -121 -78
-62 -105 -95 -110 -134 -4 -31 -1 -43 16 -60 34 -34 88 -29 236 21 17 6 58 14
93 19 35 5 80 13 100 19 53 14 217 12 287 -5 33 -8 75 -15 94 -15 19 0 57 -6
85 -14 143 -40 168 -39 219 2 27 24 22 86 -10 122 -33 38 -120 96 -156 105
-15 4 -27 11 -27 16 0 5 -9 9 -21 9 -12 0 -35 6 -52 14 -18 8 -61 20 -97 27
-78 15 -339 23 -360 10z"/>
</g>
</svg>
